PathFileType	4	(X/Y/Z)	 s09c0201.trc
DataRate	CameraRate	NumFrames	NumMarkers	Units	OrigDataRate	OrigDataStartFrame	OrigNumFrames
200	200	4	50	mm	200	751	2000
Frame#	Time	racr			lacr			c7			jug			rlel			rdr			llel			ldr			s2			lic			ric			lasi			rasi			rpsi			lpsi			rgt			lgt			rth1			rth2			rth3			rth4			rlfc			rmfc			rsh1			rsh2			rsh3			rsh4			rlmal			rmmal			rcal			rtoe			rmt5			lth1			lth2			lth4			lth3			llfc			lmfc			llmal			lmmal			lcal			lmt5			lsh1			lsh2			lsh3			lsh4			ltoe			SBIKE			LBIKE			RBIKE			
		X1	Y1	Z1	X2	Y2	Z2	X3	Y3	Z3	X4	Y4	Z4	X5	Y5	Z5	X6	Y6	Z6	X7	Y7	Z7	X8	Y8	Z8	X9	Y9	Z9	X10	Y10	Z10	X11	Y11	Z11	X12	Y12	Z12	X13	Y13	Z13	X14	Y14	Z14	X15	Y15	Z15	X16	Y16	Z16	X17	Y17	Z17	X18	Y18	Z18	X19	Y19	Z19	X20	Y20	Z20	X21	Y21	Z21	X22	Y22	Z22	X23	Y23	Z23	X24	Y24	Z24	X25	Y25	Z25	X26	Y26	Z26	X27	Y27	Z27	X28	Y28	Z28	X29	Y29	Z29	X30	Y30	Z30	X31	Y31	Z31	X32	Y32	Z32	X33	Y33	Z33	X34	Y34	Z34	X35	Y35	Z35	X36	Y36	Z36	X37	Y37	Z37	X38	Y38	Z38	X39	Y39	Z39	X40	Y40	Z40	X41	Y41	Z41	X42	Y42	Z42	X43	Y43	Z43	X44	Y44	Z44	X45	Y45	Z45	X46	Y46	Z46	X47	Y47	Z47	X48	Y48	Z48	X49	Y49	Z49	X50	Y50	Z50	
751	3.7550	488.757223	1231.459399	-55.235454	567.714873	1211.171057	-400.674686	511.808033	1305.987595	-224.365996	489.281426	1172.470646	-234.735167	470.730176	1006.423319	57.268471	673.696590	907.473322	-40.255039	481.158845	1023.236119	-592.521944	661.807069	904.371056	-483.140485	26.232781	1138.527429	-275.882214	160.964982	1116.333935	-418.901031	164.458618	1151.705959	-127.432046	199.917839	1061.683691	-389.886864	203.396685	1092.307731	-139.507201	53.599612	1176.496878	-218.459054	56.865992	1169.939813	-327.539784	163.876597	1041.119745	-71.817638	118.366248	974.347851	-441.771823	284.300902	972.959039	-87.872452	365.984198	950.789036	-107.312351	425.812381	884.869907	-110.939824	376.627973	969.603168	-137.782163	478.565969	793.593569	-142.704326	447.497400	771.745837	-234.888549	394.210976	741.592219	-101.912413	337.140038	672.299305	-108.687458	256.072110	641.111051	-97.723520	351.300829	652.522024	-140.155127	175.219684	579.875522	-87.009178	174.912559	584.442403	-164.449341	89.879568	594.962116	-118.583478	290.707087	423.879360	-131.648475	218.969758	462.079758	-65.580946	193.028928	858.032796	-437.436342	254.967505	800.844459	-425.742191	285.852285	819.564243	-413.911138	281.092047	714.492204	-415.454026	317.692934	629.092540	-396.149448	320.206029	614.413232	-298.055493	280.524827	264.969192	-409.402446	297.977863	271.164777	-337.651174	216.653250	229.602598	-376.330150	384.586023	178.501779	-432.977527	301.016192	529.722385	-421.958162	318.290577	445.466829	-414.997088	290.392335	361.043712	-415.043374	343.424493	445.854178	-383.623780	474.726182	193.534208	-361.630319	-65.215129	853.104394	-240.138935	20.717929	84.633491	-442.082836	21.126132	84.097153	-43.927648	
752	3.7600	486.661824	1233.502533	-53.257766	568.077567	1213.427366	-397.530883	510.353850	1307.763394	-222.009007	488.856756	1174.256184	-231.685111	470.054359	1006.684699	56.864723	673.623558	907.469389	-40.325664	482.259534	1025.945401	-590.547755	661.900933	903.986814	-483.190176	26.771855	1137.104503	-278.458102	163.272780	1114.530895	-419.087930	162.923569	1151.275548	-128.321474	201.621760	1060.776749	-389.065149	202.356387	1091.814605	-139.209356	52.959484	1175.348508	-220.467285	57.441429	1168.280446	-329.580271	162.179414	1042.144515	-71.739326	119.618543	972.820532	-442.847654	283.635714	975.692951	-87.377250	365.709953	954.998362	-107.138878	427.064079	890.771717	-109.535566	375.807134	973.818587	-137.588193	482.056657	800.059475	-141.731058	451.743612	777.085911	-235.287213	397.395918	748.118920	-101.222222	340.896501	678.224196	-107.922021	259.996535	646.530851	-97.375067	356.219343	658.527822	-138.348449	179.840161	584.413655	-87.075140	180.360930	589.999262	-166.236456	93.940817	597.724914	-118.944524	298.250178	431.088730	-131.647660	225.891657	467.595709	-65.601113	192.538678	856.296607	-437.865229	253.818450	798.257994	-426.367066	284.825116	816.577531	-414.253050	278.871354	711.516173	-416.261810	314.678441	626.044981	-396.318445	316.706006	611.028799	-298.117690	275.603544	262.342526	-409.623496	293.464941	268.501405	-338.241191	211.107139	228.351442	-376.147374	377.911039	173.645262	-432.828773	297.565717	526.700907	-422.077500	314.357683	442.365368	-415.087292	286.049333	358.044926	-415.177383	339.384041	442.630716	-383.681821	468.290817	186.633883	-361.444765	-65.237477	853.116413	-240.100300	20.703538	84.655553	-442.077807	21.120114	84.080497	-43.911615	
753	3.7650	484.717758	1235.350199	-51.430484	568.218948	1215.727588	-394.538425	509.058121	1309.083874	-219.629423	488.375639	1175.805000	-228.543520	469.495627	1006.921043	56.594788	673.634596	907.500463	-40.367104	483.310353	1028.692891	-588.698157	661.904225	903.773490	-482.964854	26.800547	1135.484104	-280.609801	165.500100	1112.815017	-419.183530	161.541334	1150.624081	-128.897791	203.100146	1059.665773	-388.211503	201.252336	1091.062365	-138.964131	52.265708	1174.220255	-222.356164	58.188135	1167.002713	-331.443705	160.342624	1042.822078	-71.637081	120.966972	971.499870	-443.570091	282.852834	978.117434	-86.428043	365.074669	959.432180	-106.182918	428.417237	896.196252	-108.862018	374.892268	978.047386	-137.409142	484.776079	806.909501	-140.291292	455.637726	782.587966	-234.741598	400.383771	754.293103	-100.494783	345.413049	684.049135	-106.528492	263.906570	651.516621	-97.040242	360.319746	664.649094	-138.004270	184.481572	588.304060	-87.080114	183.424058	594.083170	-165.827501	98.174690	600.950980	-118.548813	305.961934	438.022408	-131.733028	232.871059	472.940003	-65.564267	192.168884	854.789196	-438.347131	252.934521	796.081635	-427.076502	284.064711	814.130763	-414.653757	277.070669	709.123820	-417.090334	312.167327	623.236992	-396.533675	314.020041	608.107245	-298.086232	270.448552	260.000053	-409.672818	288.775579	266.054672	-338.670202	205.451628	227.550081	-375.955437	371.004823	169.306482	-432.697328	294.464508	524.045637	-422.067237	310.656795	439.544022	-415.095539	281.735706	355.524039	-415.271595	335.567297	439.639645	-383.524029	461.670353	180.090890	-361.281562	-65.264665	853.157228	-240.042462	20.705610	84.692569	-442.071767	21.124055	84.089010	-43.902105	
754	3.7700	482.779327	1237.058712	-49.667861	568.336946	1217.842021	-391.673458	507.304539	1310.635521	-217.114198	488.036221	1177.072595	-225.573435	468.963484	1007.209699	56.522042	673.717251	907.569197	-40.382938	484.309607	1031.332421	-586.824115	661.842157	903.704070	-482.544072	26.619529	1134.023321	-280.953181	167.579837	1111.160851	-419.165579	160.540379	1149.886940	-128.893985	204.362987	1058.582725	-387.305121	200.179245	1090.215631	-138.438733	51.522329	1173.177616	-223.982336	58.722376	1165.403938	-333.220673	158.397788	1043.403244	-71.660644	122.161845	970.444739	-444.162202	281.773754	980.579335	-86.397497	364.425123	963.296436	-106.840504	429.203439	901.791341	-108.250820	373.890484	982.267193	-137.259140	487.682710	813.138079	-138.879818	459.289998	788.180294	-233.974635	403.236190	760.320925	-99.797032	348.925940	689.364043	-105.918228	267.822453	656.051163	-96.696156	364.564694	669.818496	-136.841685	189.175673	591.637441	-86.975466	189.626330	597.530759	-165.561608	102.662565	602.604656	-118.328759	313.847079	444.666992	-131.755186	240.017774	477.758308	-65.397196	191.860506	853.284439	-438.452064	252.372036	794.211579	-427.821459	283.481938	811.947054	-415.000295	275.678815	707.148281	-417.818961	310.194590	620.716146	-396.737341	311.918377	605.667769	-298.049586	265.220407	258.178880	-409.708335	283.977874	264.008415	-339.068702	199.668656	227.106988	-375.690677	363.845058	165.338234	-432.520458	291.777239	521.899268	-422.091040	307.203907	437.268466	-415.077057	277.466853	353.425937	-415.265858	332.068897	437.108932	-383.550643	454.732075	173.988752	-361.125708	-65.298843	853.189295	-239.928272	20.691151	84.701126	-442.058995	21.118790	84.100987	-43.891579	
